<svg width="10" height="11" viewBox="0 0 10 11" fill="none" xmlns="http://www.w3.org/2000/svg">
<path d="M4.589 0.833402C4.69926 0.418813 5.30075 0.418814 5.41101 0.833403L6.24476 3.96842C6.28288 4.11174 6.39604 4.22438 6.54181 4.26412L9.68926 5.12207C10.1036 5.23501 10.1036 5.80991 9.68926 5.92285L6.54181 6.7808C6.39604 6.82054 6.28288 6.93319 6.24476 7.0765L5.411 10.2115C5.30074 10.6261 4.69926 10.6261 4.589 10.2115L3.75524 7.0765C3.71712 6.93319 3.60396 6.82054 3.45819 6.7808L0.310743 5.92285C-0.103581 5.80991 -0.103581 5.23501 0.310743 5.12207L3.45819 4.26412C3.60396 4.22438 3.71712 4.11174 3.75524 3.96842L4.589 0.833402Z" fill="#FF1DC0"/>
</svg>
